Coordinates
version=1
nRows=13
nColumns=27
inDegrees=yes

Units are S.I. units (second, meters, Newtons, ...)
If the header above contains a line with 'inDegrees', this indicates whether rotational values are in degrees (yes) or radians (no).

endheader
time	pelvis_rotation	pelvis_tilt	pelvis_list	pelvis_tx	pelvis_ty	pelvis_tz	hip_flexion_r	hip_adduction_r	hip_rotation_r	knee_angle_r	knee_rotation_r	knee_adduction_r	knee_angle_r_beta	ankle_angle_r	subtalar_angle_r	mtp_angle_r	hip_flexion_l	hip_adduction_l	hip_rotation_l	knee_angle_l	knee_rotation_l	knee_adduction_l	knee_angle_l_beta	ankle_angle_l	subtalar_angle_l	mtp_angle_l
      4.19000000	      3.84499409	    -29.26596748	      3.90663037	     -0.01698663	      0.63638350	     -1.14109838	     93.57817332	    -43.68249295	      5.43280236	     81.24941484	      4.51026594	      9.79200572	      1.41806980	     11.68577242	      1.89129557	      0.00000000	     89.44117339	    -34.61810840	      6.35556676	     74.21467387	      7.37668032	     -9.79644034	      1.29529041	      9.81662718	      4.77044983	      0.00000000
      4.19500000	      4.07235417	    -29.43642392	      3.96097278	     -0.01722223	      0.63429508	     -1.14110487	     94.15007693	    -44.03404081	      5.74930807	     81.65702059	      4.68836696	      9.89187842	      1.42518387	     11.74242734	      1.88269700	      0.00000000	     90.04067131	    -34.57727041	      6.87338210	     74.59450124	      7.75384292	     -9.89410474	      1.30191965	      9.88281184	      4.63497956	      0.00000000
      4.20000000	      3.80707563	    -29.04295294	      3.95229323	     -0.01682588	      0.63342553	     -1.14106133	     93.97168879	    -43.77676184	      5.56855850	     81.78586422	      4.11563982	      9.79534210	      1.42743261	     11.94245210	      2.47345695	      0.00000000	     89.63343745	    -34.87150237	      6.23865877	     74.74633966	      7.12375697	     -9.80041290	      1.30456973	     10.10818772	      5.50249152	      0.00000000
      4.20500000	      4.01144059	    -29.34492175	      3.88530882	     -0.01729621	      0.63144348	     -1.14103077	     94.53877603	    -44.05069703	      5.76131993	     82.13509406	      4.34355965	      9.89327523	      1.43352782	     11.91014749	      2.15642666	      0.00000000	     90.47806686	    -34.82312665	      6.96583968	     75.11817206	      7.54154308	     -9.89579424	      1.31105943	     10.03416497	      5.16225384	      0.00000000
      4.21000000	      4.06307774	    -29.25353985	      3.97044901	     -0.01730171	      0.63003861	     -1.14100134	     94.80259553	    -44.14268641	      5.88913063	     82.39251240	      4.15001318	      9.89453948	      1.43802062	     11.94131020	      2.35082670	      0.00000000	     90.56560966	    -34.85058763	      6.88475197	     75.34831043	      7.41609130	     -9.89726600	      1.31507610	     10.11752655	      5.39745173	      0.00000000
      4.21500000	      4.12694239	    -29.25728638	      3.80380165	     -0.01729893	      0.62871277	     -1.14092220	     94.82690177	    -44.25887935	      5.54406814	     82.59044123	      3.91679510	      9.89543873	      1.44147513	     12.01591921	      2.49975511	      0.00000000	     90.98580704	    -34.86791341	      7.20428930	     75.61201091	      7.33920249	     -9.89792853	      1.31967854	     10.14350179	      5.58480992	      0.00000000
      4.22000000	      4.09328692	    -29.22138659	      3.70376145	     -0.01733128	      0.62739639	     -1.14083870	     94.93069070	    -44.25273846	      5.41363538	     82.80062973	      3.71807455	      9.89653692	      1.44514361	     12.10775343	      2.61447798	      0.00000000	     91.26008253	    -34.98808415	      7.31352175	     75.86433646	      7.21395394	     -9.89867922	      1.32408246	     10.19685804	      5.85516848	      0.00000000
      4.22500000	      4.20535538	    -29.13622307	      3.68944868	     -0.01723462	      0.62600603	     -1.14079250	     95.04431199	    -44.43090727	      5.32105725	     83.04986588	      3.50283379	      9.89671577	      1.44949360	     12.22919814	      2.89953549	      0.00000000	     91.46445414	    -34.96139111	      7.43645325	     76.10708777	      7.12052483	     -9.89953239	      1.32831927	     10.28754527	      6.13324357	      0.00000000
      4.23000000	      4.20432464	    -29.09708795	      3.78778922	     -0.01725404	      0.62465208	     -1.14072956	     95.39654228	    -44.44669871	      5.51092807	     83.30487674	      3.32311249	      9.89768358	      1.45394438	     12.27355839	      2.97970175	      0.00000000	     91.56342024	    -35.04644439	      7.28144499	     76.32205948	      6.97782826	     -9.90048137	      1.33207123	     10.35803718	      6.34639154	      0.00000000
      4.23500000	      4.19450805	    -29.05933987	      3.79103519	     -0.01725884	      0.62335815	     -1.14065591	     95.61457480	    -44.45317090	      5.53536728	     83.53076729	      3.12744811	      9.89844228	      1.45788692	     12.34818632	      3.07855424	      0.00000000	     91.73773471	    -35.13939470	      7.26637375	     76.54033432	      6.85644226	     -9.90142158	      1.33588084	     10.40671857	      6.57843879	      0.00000000
      4.24000000	      4.13477271	    -29.01158441	      3.68091188	     -0.01726162	      0.62199782	     -1.14054622	     95.72379481	    -44.43039140	      5.41952778	     83.74937309	      2.93094586	      9.89860957	      1.46170231	     12.37797301	      3.22229015	      0.00000000	     92.00249621	    -35.29317731	      7.41514328	     76.79157836	      6.76654478	     -9.90180820	      1.34026588	     10.44587362	      6.89993575	      0.00000000
      4.24500000	      4.17756215	    -28.97442179	      3.80040967	     -0.01721096	      0.62067858	     -1.14050892	     96.06670336	    -44.48774234	      5.59500672	     84.00143648	      2.73485967	      9.89971075	      1.46610164	     12.48671856	      3.32930055	      0.00000000	     92.09131305	    -35.33003835	      7.24621655	     76.99869674	      6.61014013	     -9.90308224	      1.34388078	     10.53630820	      7.08882915	      0.00000000
      4.25000000	      4.22285378	    -28.92091871	      3.63465686	     -0.01716636	      0.61934671	     -1.14039226	     96.03785582	    -44.58608363	      5.25245015	     84.20435673	      2.47436159	      9.90035498	      1.46964327	     12.58299716	      3.50260482	      0.00000000	     92.43543698	    -35.35313880	      7.55845902	     77.25255078	      6.52905679	     -9.90381545	      1.34831137	     10.61260192	      7.32137367	      0.00000000
